<?xml version="1.0" encoding="UTF-8"?>
<svg xmlns="http://www.w3.org/2000/svg" xmlns:xlink="http://www.w3.org/1999/xlink" width="37.5pt" height="37.499999pt" viewBox="0 0 37.5 37.499999" version="1.2">
<defs>
<clipPath id="clip1">
  <path d="M 0.492188 4.097656 L 37.007812 4.097656 L 37.007812 33.316406 L 0.492188 33.316406 Z M 0.492188 4.097656 "/>
</clipPath>
</defs>
<g id="surface1">
<g clip-path="url(#clip1)" clip-rule="nonzero">
<path style=" stroke:none;fill-rule:nonzero;fill:rgb(100%,100%,100%);fill-opacity:1;" d="M 37.0625 12.007812 L 36.886719 11.753906 C 36.839844 11.65625 36.777344 11.566406 36.699219 11.492188 L 31.773438 4.421875 C 31.597656 4.175781 31.308594 3.988281 31.003906 3.988281 L 6.730469 3.988281 C 6.425781 3.988281 6.140625 4.175781 5.964844 4.421875 L 1.035156 11.472656 C 0.960938 11.546875 0.898438 11.644531 0.855469 11.742188 L 0.675781 12 C 0.429688 12.347656 0.457031 12.816406 0.738281 13.136719 L 18.164062 32.996094 C 18.171875 33.003906 18.179688 33.007812 18.1875 33.015625 C 18.21875 33.050781 18.257812 33.085938 18.296875 33.117188 C 18.3125 33.128906 18.332031 33.140625 18.347656 33.15625 C 18.367188 33.167969 18.382812 33.179688 18.398438 33.191406 C 18.410156 33.195312 18.425781 33.199219 18.4375 33.207031 C 18.484375 33.230469 18.535156 33.25 18.585938 33.265625 C 18.605469 33.273438 18.628906 33.375 18.648438 33.378906 C 18.71875 33.398438 18.792969 33.5 18.867188 33.5 L 18.871094 33.5 C 18.945312 33.5 19.019531 33.398438 19.089844 33.378906 C 19.109375 33.375 19.132812 33.320312 19.152344 33.3125 C 19.203125 33.296875 19.253906 33.253906 19.304688 33.226562 C 19.3125 33.222656 19.328125 33.207031 19.339844 33.203125 C 19.355469 33.191406 19.371094 33.171875 19.386719 33.160156 C 19.40625 33.148438 19.425781 33.132812 19.445312 33.121094 C 19.484375 33.089844 19.519531 33.054688 19.550781 33.019531 C 19.558594 33.011719 19.566406 33.007812 19.574219 32.996094 L 37 13.140625 C 37.28125 12.820312 37.304688 12.355469 37.0625 12.007812 Z M 34.246094 11.230469 L 26.753906 11.292969 L 30.570312 5.992188 Z M 18.867188 29.617188 L 13.027344 13.160156 L 24.707031 13.160156 Z M 13.28125 11.164062 L 13.097656 10.976562 L 18.867188 6.167969 L 24.636719 10.960938 L 24.453125 11.164062 Z M 25.726562 9.605469 L 21.410156 5.980469 L 28.335938 5.980469 Z M 12.011719 9.605469 L 9.398438 5.980469 L 16.328125 5.980469 Z M 7.164062 5.992188 L 10.984375 11.292969 L 3.492188 11.230469 Z M 3.152344 13.074219 L 11.046875 13.140625 L 16.367188 28.132812 Z M 21.371094 28.132812 L 26.691406 13.144531 L 34.582031 13.078125 Z M 21.371094 28.132812 "/>
</g>
</g>
</svg>
